<svg width="162" height="165" viewBox="0 0 162 165" fill="none" xmlns="http://www.w3.org/2000/svg">
<path d="M115.466 106.219L114.837 118.408L125.768 119.43M47.76 60.7668L46.5805 49.2858L35.5713 49.8362" stroke="#00D1FF" stroke-width="0.733945"/>
<path d="M107.518 110.96C94.0546 125.021 77.721 136.017 59.628 143.201C44.5297 148.627 31.6333 148.234 24.3987 140.921C17.0854 133.686 16.6922 120.79 22.1182 105.691C29.3485 87.5998 40.3379 71.2497 54.3593 57.7228C70.0867 42.1526 87.2296 30.9862 102.328 25.4816C117.348 20.1343 130.244 20.5275 137.557 27.8407C144.792 35.0753 145.185 47.9718 139.759 63.0701C134.412 78.1684 123.245 95.3112 107.518 111.039V110.96Z" stroke="#00D1FF" stroke-width="0.733945"/>
<path d="M115.094 118.518C155.199 78.4133 172.342 30.4447 153.39 11.5719C136.483 -5.41373 96.2213 6.61773 59.2619 38.1511M46.4441 49.9467C6.33921 90.0515 -10.8036 137.941 8.14786 156.893C25.7625 174.429 68.3838 160.825 106.444 126.618" stroke="#00D1FF" stroke-width="0.733945"/>
<path d="M103.097 47.131L115.286 46.5806V35.5714M56.9369 114.444L46.7141 115.388L47.1073 125.925" stroke="#00D1FF" stroke-width="0.733945"/>
<path d="M107.518 54.2879C123.245 70.0153 134.412 87.1581 139.759 102.256C145.264 117.355 144.792 130.251 137.557 137.486C130.244 144.799 117.348 145.192 102.249 139.766C87.2296 134.34 70.0081 123.253 54.3593 107.525C38.7106 91.7977 27.5441 74.7335 22.1182 59.5566C16.6922 44.5369 17.0854 31.6404 24.3987 24.3272C31.6333 17.0926 44.5297 16.6994 59.628 22.1254C74.7263 27.5513 91.8692 38.6391 107.597 54.3665L107.518 54.2879Z" stroke="#00D1FF" stroke-width="0.733945"/>
<path d="M115.089 46.5081C74.9845 6.40329 27.016 -10.8182 8.14309 8.1333C-9.62886 25.9053 4.36852 69.0769 39.2047 107.452M46.4393 115.08C86.5441 155.184 134.513 172.327 153.386 153.376C170.764 136.076 157.789 94.398 124.604 56.6523" stroke="#00D1FF" stroke-width="0.733945"/>
</svg>
