<svg width="11" height="11" viewBox="0 0 11 11" fill="none" xmlns="http://www.w3.org/2000/svg">
<g opacity="0.7" clip-path="url(#clip0_2049_910)">
<path fill-rule="evenodd" clip-rule="evenodd" d="M7.85309 6.50825C7.18026 7.18017 7.18026 7.853 6.50834 7.853C5.83643 7.853 5.16359 7.18017 4.49168 6.50825C3.81976 5.83634 3.14693 5.1635 3.14693 4.49159C3.14693 3.81967 3.81976 3.81967 4.49168 3.14684C5.16359 2.47492 3.14693 0.458252 2.47501 0.458252C1.80309 0.458252 0.458344 2.47492 0.458344 2.47492C0.458344 3.81967 1.83976 6.54492 3.14693 7.853C4.45501 9.16017 7.18026 10.5416 8.52501 10.5416C8.52501 10.5416 10.5417 9.19684 10.5417 8.52492C10.5417 7.853 8.52501 5.83634 7.85309 6.50825Z" fill="white"/>
</g>
<defs>
<clipPath id="clip0_2049_910">
<rect width="11" height="11" fill="white"/>
</clipPath>
</defs>
</svg>
