<svg width="11" height="11" viewBox="0 0 11 11" fill="none" xmlns="http://www.w3.org/2000/svg">
<g opacity="0.7" clip-path="url(#clip0_2049_918)">
<path fill-rule="evenodd" clip-rule="evenodd" d="M10.5417 4.19825V8.33242C10.5417 8.56159 10.4537 8.75867 10.2777 8.92184C10.1057 9.0834 9.8774 9.17125 9.64151 9.16659H1.35851C1.12263 9.17125 0.894282 9.0834 0.722348 8.92184C0.638479 8.84841 0.571468 8.75772 0.525903 8.65599C0.480337 8.55426 0.457293 8.44388 0.458348 8.33242V4.19825C0.623348 4.36784 0.813098 4.51909 1.02668 4.65109C2.38426 5.50542 3.31651 6.104 3.82251 6.44775C4.03701 6.59442 4.21026 6.70717 4.3441 6.78875C4.47701 6.87125 4.65393 6.95375 4.87576 7.039C5.09668 7.12425 5.30293 7.16734 5.49451 7.16734H5.50551C5.6971 7.16734 5.90335 7.12425 6.12426 7.039C6.3461 6.95375 6.52301 6.87034 6.65593 6.78875C6.78976 6.70717 6.96301 6.5935 7.1766 6.44775C7.8146 6.02059 8.74868 5.42109 9.97885 4.65109C10.1924 4.51542 10.3803 4.36417 10.5417 4.19825ZM9.64151 1.83325C9.88535 1.83325 10.0962 1.91484 10.274 2.078C10.3586 2.15083 10.4264 2.24118 10.4726 2.3428C10.5188 2.44442 10.5424 2.55487 10.5417 2.6665C10.5417 2.9415 10.45 3.20275 10.2667 3.453C10.0824 3.70325 9.85418 3.91684 9.57918 4.09375L6.94651 5.78592L6.70726 5.94542C6.51595 6.07912 6.317 6.20155 6.11143 6.31209C6.00825 6.36987 5.89954 6.41716 5.78693 6.45325C5.6861 6.48442 5.59168 6.49909 5.50551 6.49909H5.49451C5.40835 6.49909 5.31393 6.48442 5.2131 6.45325C5.10079 6.41712 4.99239 6.36983 4.88951 6.31209C4.68385 6.20171 4.48489 6.07927 4.29368 5.94542L4.05351 5.78592C3.56315 5.46786 3.07182 5.1513 2.57951 4.83625L1.42635 4.09375C1.17521 3.93109 0.952803 3.72788 0.768181 3.49242C0.561931 3.23575 0.458348 3.00017 0.458348 2.78109C0.458348 2.51159 0.536264 2.28425 0.692098 2.10367C0.847931 1.92309 1.06976 1.83325 1.35851 1.83325H9.64151Z" fill="white"/>
</g>
<defs>
<clipPath id="clip0_2049_918">
<rect width="11" height="11" fill="white"/>
</clipPath>
</defs>
</svg>
