<svg width="11" height="11" viewBox="0 0 11 11" fill="none" xmlns="http://www.w3.org/2000/svg">
<g opacity="0.7" clip-path="url(#clip0_1969_2143)">
<path fill-rule="evenodd" clip-rule="evenodd" d="M7.85313 6.50825C7.18029 7.18017 7.18029 7.853 6.50837 7.853C5.83646 7.853 5.16362 7.18017 4.49171 6.50825C3.81979 5.83634 3.14696 5.1635 3.14696 4.49159C3.14696 3.81967 3.81979 3.81967 4.49171 3.14684C5.16362 2.47492 3.14696 0.458252 2.47504 0.458252C1.80312 0.458252 0.458374 2.47492 0.458374 2.47492C0.458374 3.81967 1.83979 6.54492 3.14696 7.853C4.45504 9.16017 7.18029 10.5416 8.52504 10.5416C8.52504 10.5416 10.5417 9.19684 10.5417 8.52492C10.5417 7.853 8.52504 5.83634 7.85313 6.50825Z" fill="white"/>
</g>
<defs>
<clipPath id="clip0_1969_2143">
<rect width="11" height="11" fill="white"/>
</clipPath>
</defs>
</svg>
