<svg width="11" height="11" viewBox="0 0 11 11" fill="none" xmlns="http://www.w3.org/2000/svg">
<g opacity="0.7" clip-path="url(#clip0_1969_2148)">
<path fill-rule="evenodd" clip-rule="evenodd" d="M10.5416 4.19825V8.33242C10.5416 8.56159 10.4536 8.75867 10.2776 8.92184C10.1057 9.0834 9.87734 9.17125 9.64145 9.16659H1.35845C1.12257 9.17125 0.894221 9.0834 0.722287 8.92184C0.638418 8.84841 0.571407 8.75772 0.525842 8.65599C0.480276 8.55426 0.457232 8.44388 0.458287 8.33242V4.19825C0.623287 4.36784 0.813037 4.51909 1.02662 4.65109C2.3842 5.50542 3.31645 6.104 3.82245 6.44775C4.03695 6.59442 4.2102 6.70717 4.34404 6.78875C4.47695 6.87125 4.65387 6.95375 4.8757 7.039C5.09662 7.12425 5.30287 7.16734 5.49445 7.16734H5.50545C5.69704 7.16734 5.90329 7.12425 6.1242 7.039C6.34604 6.95375 6.52295 6.87034 6.65587 6.78875C6.7897 6.70717 6.96295 6.5935 7.17654 6.44775C7.81454 6.02059 8.74862 5.42109 9.97879 4.65109C10.1924 4.51542 10.3803 4.36417 10.5416 4.19825ZM9.64145 1.83325C9.88529 1.83325 10.0961 1.91484 10.274 2.078C10.3586 2.15083 10.4263 2.24118 10.4725 2.3428C10.5188 2.44442 10.5423 2.55487 10.5416 2.6665C10.5416 2.9415 10.45 3.20275 10.2666 3.453C10.0824 3.70325 9.85412 3.91684 9.57912 4.09375L6.94645 5.78592L6.7072 5.94542C6.51589 6.07912 6.31694 6.20155 6.11137 6.31209C6.00819 6.36987 5.89948 6.41716 5.78687 6.45325C5.68604 6.48442 5.59162 6.49909 5.50545 6.49909H5.49445C5.40829 6.49909 5.31387 6.48442 5.21304 6.45325C5.10073 6.41712 4.99233 6.36983 4.88945 6.31209C4.68379 6.20171 4.48483 6.07927 4.29362 5.94542L4.05345 5.78592C3.56309 5.46786 3.07176 5.1513 2.57945 4.83625L1.42629 4.09375C1.17515 3.93109 0.952742 3.72788 0.76812 3.49242C0.56187 3.23575 0.458287 3.00017 0.458287 2.78109C0.458287 2.51159 0.536203 2.28425 0.692037 2.10367C0.84787 1.92309 1.0697 1.83325 1.35845 1.83325H9.64145Z" fill="white"/>
</g>
<defs>
<clipPath id="clip0_1969_2148">
<rect width="11" height="11" fill="white"/>
</clipPath>
</defs>
</svg>
