<svg width="236" height="387" viewBox="0 0 236 387" fill="none" xmlns="http://www.w3.org/2000/svg">
<path d="M235.5 350L218.313 352.148L228.767 365.958L235.5 350ZM0.52845 0.991362C-0.0660658 104.228 8.4581 181.835 22.888 239.286C37.3151 296.725 57.6721 334.12 80.825 356.807C104.019 379.534 129.945 387.423 155.247 385.967C180.496 384.513 205.033 373.764 225.598 359.375L223.878 356.917C203.62 371.091 179.61 381.559 155.075 382.972C130.593 384.381 105.499 376.784 82.9246 354.664C60.3089 332.504 40.1486 295.691 25.7976 238.555C11.4495 181.43 2.93476 104.093 3.5284 1.00864L0.52845 0.991362Z" fill="#FF00D6"/>
</svg>
