<svg width="77" height="57" viewBox="0 0 77 57" fill="none" xmlns="http://www.w3.org/2000/svg">
<path d="M34.6957 11.7439C38.0223 13.629 41.3658 15.4138 44.8127 17.0465C45.7485 17.4898 46.9841 18.4359 47.7249 19.1508C50.2562 21.5932 53.0804 23.8044 55.4011 26.4566C57.5623 28.9265 60.3236 31.8723 60.4512 35.4457C60.5099 37.0905 60.4504 37.6831 61.2087 39.0313C61.5107 39.5682 62.3396 41.2114 62.1346 40.6305C61.334 38.3622 59.0515 35.9538 57.7073 34.0317C56.0083 31.6021 54.2679 29.2577 52.2027 27.1299C50.9981 25.8888 50.2069 24.414 49.0885 23.1235C48.7804 22.768 48.4762 22.4713 48.2636 22.0461C46.8891 19.297 52.292 26.6911 54.2227 29.0826C60.4185 36.7572 66.1037 44.8214 72.2684 52.5151C74.2998 55.0502 71.3488 51.7497 70.9554 51.3367C65.1836 45.2787 58.914 39.8573 52.674 34.3011C44.9192 27.3958 38.0413 19.5999 30.6388 12.3331C27.9329 9.67694 25.1047 7.20817 22.0536 4.95996C21.7754 4.75498 20.9654 3.97715 20.4544 4.16878C19.3152 4.59598 27.4651 21.699 28.2652 23.4265C28.384 23.6829 28.6226 24.3869 28.3662 24.2682C27.7639 23.9893 26.4277 22.9389 26.1442 22.7195C22.4408 19.8538 18.8334 16.8678 15.1181 14.0165C12.5536 12.0484 10.3336 10.3724 7.69446 8.5792C6.95148 8.07436 5.28122 6.77474 4.15939 6.59283C3.97078 6.56224 4.00679 6.78536 4.05839 6.86217C5.50162 9.01023 7.66705 11.0592 9.37783 12.9223C12.886 16.7427 16.3866 20.7068 20.3702 24.0494C21.8839 25.3195 23.6515 26.5393 25.6055 26.9952C27.3026 27.3912 29.0205 27.1554 30.7229 27.6349C33.5812 28.4401 35.8524 30.8193 38.3823 32.281C39.2967 32.8094 40.1521 33.7579 41.2608 33.8465C43.3085 34.0104 45.1617 33.1791 47.1863 33.3247C49.7562 33.5096 52.3191 34.223 54.7614 35.0081C55.2855 35.1765 56.0795 35.2943 56.5121 35.6814C57.3805 36.4584 58.0272 37.3168 58.0272 38.56C58.0272 40.3111 58.3113 42.1599 58.7005 43.8626C59.0928 45.5787 58.8729 45.6806 60.7542 45.6806" stroke="white" stroke-width="7" stroke-linecap="round"/>
</svg>
