<svg width="17" height="15" viewBox="0 0 17 15" fill="none" xmlns="http://www.w3.org/2000/svg">
<path d="M10.9514 3.85498C10.9514 5.54739 10.9514 7.2398 10.9514 8.93221C10.9514 9.25761 11.0561 9.59965 11.0561 9.87438C11.0561 10.1016 11.0524 10.9951 11.1841 11.1597C11.7255 11.8364 12.3727 10.5903 12.6787 10.3455C13.3292 9.82512 13.0451 9.34571 13.0451 8.66469C13.0451 8.28769 13.2472 7.41428 12.766 7.41428C10.4047 7.41428 8.04351 7.41428 5.68227 7.41428C5.10449 7.41428 4.51476 7.38032 3.93752 7.41428C3.67428 7.42976 3.95987 8.34481 3.78049 8.34481C3.68731 8.34481 3.72815 6.97355 3.72815 8.24594C3.72815 9.18646 3.83283 8.08774 3.83283 7.72833" stroke="white" stroke-width="7" stroke-linecap="round"/>
</svg>
