<svg width="4" height="3" viewBox="0 0 4 3" fill="none" xmlns="http://www.w3.org/2000/svg">
<path d="M0.894531 1.27734C0.894531 1.34993 0.90625 1.41969 0.90625 1.49219C0.90625 1.50989 0.910156 1.54514 0.910156 1.54514C0.910156 1.54514 0.910156 1.54225 0.910156 1.54297C0.910156 1.54738 0.910156 1.55179 0.910156 1.55621C0.910156 1.56322 0.910156 1.54217 0.910156 1.53516C0.910156 1.51325 0.913282 1.47182 0.926649 1.45399C0.933193 1.44527 0.914243 1.47741 0.914062 1.48047C0.912055 1.5146 0.908522 1.54177 0.910156 1.51562C0.910429 1.51126 0.91379 1.50827 0.914062 1.50391C0.914103 1.50326 0.914062 1.50651 0.914062 1.50586C0.914062 1.5038 0.918097 1.50669 0.920139 1.50694C0.927415 1.50784 0.934742 1.50781 0.942057 1.50781C0.950666 1.50781 0.959274 1.50781 0.967882 1.50781C1.05744 1.50781 1.14699 1.50781 1.23655 1.50781C1.88643 1.50781 2.53631 1.50781 3.1862 1.50781C3.25897 1.50781 3.33174 1.50781 3.40451 1.50781C3.4116 1.50781 3.41869 1.50781 3.42578 1.50781C3.4647 1.50781 3.34796 1.50482 3.30924 1.50087C3.23116 1.49289 3.15656 1.47931 3.08333 1.45052C3.0417 1.43415 3.00096 1.41357 2.96007 1.3954C2.7014 1.28044 2.4445 1.16158 2.1875 1.04297" stroke="white" stroke-linecap="round"/>
</svg>
