<svg width="6" height="5" viewBox="0 0 6 5" fill="none" xmlns="http://www.w3.org/2000/svg">
<path d="M1.98178 2.61504C1.97708 2.57272 1.9533 2.5367 1.9533 2.49163C1.9533 2.48291 1.94872 2.51157 1.95488 2.51773C1.9615 2.52436 1.96934 2.50398 1.97861 2.5027C2.01431 2.49778 2.0525 2.50112 2.08858 2.50112C2.21938 2.50112 2.35018 2.50112 2.48098 2.50112C2.82236 2.50112 3.16373 2.50112 3.50511 2.50112C3.67322 2.50112 3.84134 2.50112 4.00945 2.50112C4.01829 2.50112 4.02712 2.50112 4.03596 2.50112C4.06966 2.50112 4.01237 2.74194 4.00748 2.76101C3.99025 2.82803 3.97567 2.90438 3.94695 2.96789C3.93539 2.99347 3.93137 3.01512 3.91135 3.03514" stroke="white" stroke-width="3" stroke-linecap="round"/>
</svg>
