<svg width="25" height="41" viewBox="0 0 25 41" fill="none" xmlns="http://www.w3.org/2000/svg">
<path d="M5.92213 9.83613C5.92213 13.0896 6.65882 16.2874 6.65882 19.4132C6.65882 21.9443 5.99206 14.0417 5.92213 12.7829C5.61781 7.30519 4.4884 16.4327 4.44873 17.9398C4.40178 19.724 4.44873 21.5162 4.44873 23.3013C4.44873 26.4142 4.74166 17.0117 4.08039 13.9698C3.40284 10.8531 3.71204 7.49802 3.71204 4.31091C3.71204 -0.856852 2.23865 4.76711 2.23865 7.09398C2.23865 15.9566 2.5598 25.0125 4.48966 33.6969C5.46466 38.0844 10.6957 34.6909 11.2427 31.7733C11.8446 28.5631 12.3688 24.563 11.7748 21.2958C11.7002 20.8859 10.475 18.0561 9.76932 18.8402C7.86911 20.9515 11.11 32.0894 13.1254 34.3927C14.7572 36.2576 7.38909 26.736 9.60561 27.8442C12.0104 29.0467 18.439 38.2749 11.3655 29.6041C8.90805 26.5918 6.46041 23.6349 3.71204 20.8866C3.24739 20.4219 2.1211 18.9304 2.23865 19.5769C2.47801 20.8934 3.87729 21.6962 4.77615 22.6874C8.35141 26.63 12.044 30.4861 15.9084 34.1471C17.2161 35.3859 24.5957 43.057 22.4159 36.2753C20.5357 30.4257 14.7229 27.1201 11.8157 22.0325C11.2452 21.0342 9.73592 21.8936 11.4064 23.2604C13.7347 25.1653 15.5786 27.5962 17.7093 29.7269" stroke="white" stroke-width="3" stroke-linecap="round"/>
</svg>
