<svg width="6" height="4" viewBox="0 0 6 4" fill="none" xmlns="http://www.w3.org/2000/svg">
<path d="M4.11787 1.77175C4.06909 1.77175 4.02085 1.78599 3.97231 1.78599C3.94224 1.78599 3.94699 1.76386 3.94699 1.73971C3.94699 1.69102 3.94489 1.64753 3.92167 1.60442C3.91243 1.58726 3.90505 1.55814 3.88291 1.55814C3.85917 1.55814 3.83544 1.55814 3.81171 1.55814C3.75712 1.55814 3.70253 1.55814 3.64794 1.55814C3.61705 1.55814 3.57508 1.54997 3.54509 1.55854C3.51104 1.56827 3.57615 1.57238 3.58386 1.57238C3.65468 1.57238 3.72229 1.58662 3.79391 1.58662C3.84256 1.58662 3.89122 1.58662 3.93987 1.58662C3.96174 1.58662 3.98508 1.56125 3.96677 1.53837C3.94871 1.5158 3.93896 1.52295 3.91139 1.5352C3.89192 1.54385 3.85981 1.52518 3.84731 1.54707C3.84055 1.5589 3.80569 1.56373 3.79311 1.56566C3.69523 1.58072 3.60089 1.60086 3.50198 1.60086C3.43972 1.60086 3.35529 1.58426 3.29905 1.60957C3.26439 1.62516 3.21706 1.62343 3.17959 1.63093C3.13263 1.64032 3.08346 1.63647 3.0356 1.63647C2.99763 1.63647 2.95966 1.63647 2.92168 1.63647C2.86561 1.63647 2.80803 1.65783 2.7508 1.65783C2.69146 1.65783 2.63213 1.65783 2.57279 1.65783C2.55877 1.65783 2.41733 1.67791 2.41615 1.65783C2.41558 1.64815 2.41615 1.58883 2.41615 1.61511C2.41615 1.63884 2.41615 1.66257 2.41615 1.68631" stroke="white" stroke-width="3" stroke-linecap="round"/>
</svg>
