<svg width="252" height="398" viewBox="0 0 252 398" fill="none" xmlns="http://www.w3.org/2000/svg">
<path d="M252 360.339L234.78 362.199L245 376.182L252 360.339ZM0.531245 0.991018C-0.10678 107.537 9.06422 187.57 24.58 246.765C40.0936 305.951 61.9768 344.404 86.8403 367.664C111.742 390.96 139.544 398.93 166.638 397.295C193.684 395.662 219.954 384.467 241.934 369.553L240.25 367.07C218.577 381.776 192.819 392.709 166.457 394.3C140.143 395.888 113.159 388.178 88.8898 365.474C64.5827 342.734 42.9115 304.869 27.482 246.004C12.0548 187.147 2.89412 107.395 3.53119 1.00898L0.531245 0.991018Z" fill="#FF00D6"/>
</svg>
