<svg width="192" height="44" viewBox="0 0 192 44" fill="none" xmlns="http://www.w3.org/2000/svg">
<path d="M3.76526 9.9929C12.1217 15.7781 22.7065 19.4183 30.2863 26.2002C31.1835 27.003 32.3959 27.7173 33.3968 28.4103C34.4953 29.1708 35.0612 30.9049 35.8525 31.3571C37.6018 32.3567 40.4801 35.8288 40.6001 37.9873C40.7286 40.3003 35.1752 39.6372 33.5605 39.3789C31.052 38.9775 26.7206 37.5514 24.8429 35.8182C24.1649 35.1923 21.701 34.6439 21.4869 33.8946C20.821 31.5639 33.3387 33.7958 35.2795 34.4676C40.9232 36.4212 33.9351 33.905 31.8006 33.1579C26.6351 31.3499 21.7359 28.8323 17.0258 26.2002C10.5707 22.593 12.6056 20.5773 12.6056 13.7173C12.6056 10.8855 12.0179 8.25396 11.8689 5.57272C11.7359 3.17881 8.18543 3.63725 8.18543 5.94107C8.18543 7.12526 7.59865 10.7022 8.55378 11.4663C11.5939 13.8984 11.6105 18.315 14.079 21.0433C16.5406 23.7641 17.4888 23.571 20.7093 24.031C24.034 24.506 29.059 27.4629 31.7597 29.3107C37.0456 32.9273 42.4778 37.2506 49.0721 37.2506C53.5818 37.2506 57.905 37.1488 62.2917 37.9464C67.0637 38.8141 73.1858 38.724 78.0078 38.724C86.2479 38.724 94.488 38.724 102.728 38.724C130.395 38.724 213.396 38.724 185.729 38.724" stroke="white" stroke-width="7" stroke-linecap="round"/>
</svg>
