<svg width="5" height="3" viewBox="0 0 5 3" fill="none" xmlns="http://www.w3.org/2000/svg">
<path d="M2.02722 1.82422C2.01436 1.85113 2.00335 1.87751 1.98643 1.90213C1.98055 1.91067 1.97317 1.9151 1.97254 1.92578C1.97186 1.93728 1.97254 1.94934 1.97254 1.96094C1.97254 1.99303 1.99428 1.98828 2.02158 1.98828C2.0971 1.98828 2.17262 1.98828 2.24814 1.98828C2.69143 1.98828 3.13472 1.98828 3.57801 1.98828C3.61649 1.98828 3.65497 1.98828 3.69346 1.98828C3.70235 1.98828 3.72905 1.98828 3.72015 1.98828C3.61938 1.98828 3.51862 1.98828 3.41785 1.98828C3.02563 1.98828 2.63342 1.98828 2.2412 1.98828C2.16076 1.98828 2.08032 1.98828 1.99988 1.98828C1.53952 1.98828 2.9206 1.98828 3.38096 1.98828C3.58075 1.98828 3.78055 1.98828 3.98035 1.98828" stroke="white" stroke-width="2" stroke-linecap="round"/>
</svg>
