<svg width="18" height="43" viewBox="0 0 18 43" fill="none" xmlns="http://www.w3.org/2000/svg">
<path d="M2.28145 15.644C2.28145 22.0663 1.95435 28.4185 1.95435 34.7976C1.95435 36.2029 1.95435 37.6082 1.95435 39.0135C1.95435 39.4436 1.95435 39.8737 1.95435 40.3037C1.95435 40.5279 2.09068 39.8764 2.17241 39.6677C3.57967 36.0747 5.31377 32.5941 6.84267 29.0551C10.1478 21.4048 13.4676 13.5443 15.0747 5.32222C15.2701 4.32261 16.2204 2.26929 15.2019 2.26929C14.9353 2.26929 14.593 3.64971 14.5659 3.72306C13.2865 7.18667 11.9915 10.6717 10.4044 14.0085C10.0147 14.828 7.38471 20.3184 5.55244 18.5879C4.30464 17.4095 4.29093 15.7843 4.24405 14.1903C4.22667 13.5994 3.99815 13.1539 3.93512 14.0994C3.83436 15.6108 3.92868 17.147 3.91695 18.6606C3.89553 21.4227 3.26275 24.1661 3.26275 26.9108C3.26275 31.4975 2.93565 36.1565 2.93565 40.8307" stroke="white" stroke-width="3" stroke-linecap="round"/>
</svg>
