<svg width="10" height="26" viewBox="0 0 10 26" fill="none" xmlns="http://www.w3.org/2000/svg">
<path d="M6.98988 3.35497C0.879542 4.03389 2.70974 8.98264 2.70974 12.6286C2.70974 14.5314 2.74947 22.6474 4.29498 23.8838C5.47252 24.8258 8.37822 16.5084 8.25807 16.3539C7.21399 15.0115 6.27652 13.3578 6.27652 11.5586C6.27652 8.38224 6.27652 12.3902 6.27652 13.5005C6.27652 15.8209 5.98855 18.2857 5.20649 20.4755C4.4479 22.5996 4.84981 15.6896 4.84981 14.4516C4.84981 13.2777 5.56317 9.85868 5.56317 9.89406C5.56317 12.4701 5.56317 15.0461 5.56317 17.6221C5.56317 23.0912 5.56317 -4.25417 5.56317 1.2149" stroke="white" stroke-width="3" stroke-linecap="round"/>
</svg>
