<svg width="16" height="21" viewBox="0 0 16 21" fill="none" xmlns="http://www.w3.org/2000/svg">
<path d="M11.8902 4.25977C11.8902 6.94193 11.8902 9.6241 11.8902 12.3063C11.8902 12.9054 11.9505 14.67 11.5199 15.1007C10.9423 15.6783 7.7428 11.8959 7.22731 11.3804C6.25902 10.4121 6.59493 7.60998 7.19364 6.53231C7.56884 5.85696 7.86268 4.34456 7.64815 5.7748C7.51255 6.67882 6.21768 7.47832 5.83011 8.35035C5.32186 9.49391 4.51921 10.5087 4.01207 11.6497C3.53659 12.7196 4.41356 11.3045 4.55075 10.8586C4.7328 10.2669 4.92109 8.94827 4.92109 8.35035C4.92109 6.72403 4.92109 10.2923 4.92109 10.7576C4.92109 12.0923 4.58188 18.8448 7.04214 16.077C8.64753 14.2709 8.55717 12.3977 8.55717 10.0169" stroke="white" stroke-width="7" stroke-linecap="round"/>
</svg>
